<?xml version="1.0" encoding="utf-8"?>

<svg version="1.1" id="Background" xmlns="http://www.w3.org/2000/svg" xmlns:xlink="http://www.w3.org/1999/xlink" x="0px" y="0px"
	 width="284px" height="292.5px" viewBox="0 0 284 292.5" style="enable-background:new 0 0 284 292.5;" xml:space="preserve">
<style type="text/css">
	.st0{fill:#1D1D1B;}
</style>
<g class="fabicycle">
<path class="st0" d="M224,180.6c-4.8,0-9.4,0.6-13.8,1.8c0-1.7-0.2-4.1-0.9-4.5c-0.2-0.1-0.4-0.1-0.6-0.2c-0.2-2.6-0.6-7.5-2-11.3
	c-2-5.3-1.3-10.8,0.1-14.2c0.7-1.9,1.3-3.5,1.5-4.8c0.4-1,0.7-1.9,0.7-2.9c0-2-0.5-3.6-1-4.6c0.2-0.2,0.3-0.5,0.3-0.7
	c-0.1-0.4-2.3-2.3-2.3-2.5c0-0.3-0.2-1.5-0.5-1.9c-0.3-0.4-0.7-1.2-0.8-1.9c-0.1-0.7-1-1.3-0.9-1.8c0.1-0.5,0.3-1.3-0.1-2.1
	c-0.4-0.8-1.3-1.5-2.3-1.5c-0.9,0-2-0.7-2.8-0.9c-0.8-0.1-1.8,0.1-2.7,0c-0.9-0.1-3.6-3.8-3.6-3.8l-1.2,0c0,0-16.3-25.2-18.5-27.4
	c-2.2-2.2-6.5-5.8-9.1-9.3c-2.6-3.5-7-15.4-9.4-18.4c-2.4-3-3.8-5.4-4.8-6.2c-1-0.8,0.4-1.2,0.6-1.8c0.2-0.6,0.1-1.6,1.2-2.6
	c1.2-0.9,2.9-2.4,5.1-2.1c2.2,0.2,4.4,0.4,5.4-0.7c1-1.1,0.5-3,0.8-3.6c0.3-0.6,1.1-1.2,1.1-2.1c0-0.9,0.2-2,0.8-2.3
	c0.6-0.3,0.5-1.8,0.1-2.7c-0.4-0.9,0.5-0.9,1.4-1.3c0.8-0.3,1.5-1.2,0.6-2.4c-0.9-1.2-1.7-3.7-1.7-5.5c0-1.8,0.2-3.3,0.2-3.3
	s4.4-1.7,5.3-1.9c0.9-0.2,3.1-0.6,2.9-1.1c-0.1-0.5-2.6-3.2-4.9-6c-2.4-2.8-8.3-8.9-16.5-9.8c-8.2-0.9-18.3,3-18.7,4
	c-0.5,0.9-0.1,2.8-1.2,3.9c-1,1.1-1.3,3-1.4,4.3c-0.1,1.3,0.2,2.6-0.8,4.3c-1,1.7-1.1,3.6-0.4,4.6c0.7,1,1.7,2.7,2.2,2.7
	c0.5,0,2-0.3,2.3,1.3c0.3,1.6,1,3.3,0.3,3.9c-0.7,0.6-0.8,1.9-1.6,2.1c-0.7,0.2-4.8,0.7-6.2,2.3c-0.8,1-2.3,2.2-4.8,3.6
	c-2.6,0.4-7.2-2.7-8.3-3.6c-3.1-0.2-4.8,2.4-7,1.7c-0.3-2,0.9-2.8,0.6-4.8c-1.8-3.4-7.1,0.1-9.5-2.4c-1.7,0.5-3.2,2.4-5.3,2.9
	c-2.4,0.6-5.3-0.2-6.3,2.3c-0.1,2.3,1,3.1,1.3,4.8c-1.4,1.3-2.4-0.4-3.9-0.3c-1.1,0.7-1.1,2.4-2.3,3c-0.7-0.2-0.3-1.7-1.2-1.6
	c-2.2,1.1-3.7,2.8-5.4,4.4c-0.1,0.8,0.4,0.9,0.4,1.7c-0.7,2.1-3,3.2-4.3,5.1c-0.8,1.2-1.3,3-2.2,4.5c-1.3,2.4-2.8,4-2.3,7.3
	c-2.8,3.1,1.5,10.1,1.2,13c-0.1,1-1,1.7-1.1,2.5c-0.6,5.5,2.7,10.9,6.1,13.2c-2.8,6.3-3.7,11.6-3.7,11.6l1.2,1.2c0,0-1.4,4.9-0.9,9
	c0.5,4.1,3.6,8.2,8.4,10.2c4.8,2,9.9,4.7,10.6,5.5c0.7,0.9,5.9,7.4,7,9.8c1.2,2.4,4,10.3,4.2,10.8c0.1,0.4-1.2,1.8-1.2,1.8
	s1.7,0.9,1.7,1.1c0,0,0,0.1,0.1,0.2c-0.9,0.4-4,1.7-4.2,2.1c-0.2,0.3,0.7,1.9,1.4,2.2c0.6,1.1,3.1,5.9,6.5,7.2
	c0.2,0.6,0.7,1.7,0.9,2.4c-0.6,0.1-1.3,0.2-2,0.5c-2.5,0.8-4.5,3.2-5.6,4.7c-1.1-0.1-2.2,0-2.7,0.4c-1,0.8-3.2,4.2-4.1,5.6
	c-8.4-6.1-18.8-9.7-29.9-9.8c-28.5-0.1-51.8,22.9-51.9,51.4c-0.1,28.5,22.9,51.8,51.4,51.9c21,0.1,39.2-12.4,47.3-30.4l9.6-2
	c0.7,0.6,1.8,1.1,3.3,1.5c4.3,1.1,8.5,1.7,8.5,1.7s1.4,0.7,2.5,1c1,0.2,1.8,0.8,1.8,0.8s-0.7,0.6-0.6,0.8c0.1,0.2,1.2,1.3,1.5,1.3
	c0.2,0,0.5,0,0.5,0s-0.1,0.3,0.3,0.8c0.4,0.5,2.1,2.2,2.8,2.2c0.7,0,2.3-1.5,2.8-1.5c0.5,0,0.7,1.2,1.3,1c0.6-0.2,3.9-2.3,3.9-2.3
	l-1-1.7c0,0,1.5,0.4,2.4,0.1c0.8-0.3,3.6-2.3,3.8-2.3c0.3,0,1.7-0.1,2.1-0.8c0.4-0.7,1.6-4-3.2-4.9c-4.8-0.9-5.9-0.6-6.1-1.1
	c-0.2-0.4,0.3-1,0.1-1.1c-0.2-0.1-3.2-1.7-3.4-1.6c-0.2,0.1-0.3,0.8-0.5,0.8c-0.3,0-1-0.8-1-1.1c0-0.3,0-1.4-0.5-1.8
	c-0.3-0.3-1-0.9-1.4-1.3c0.6-1.6,1-3.3,1-5c0-2.3-0.5-4.4-1.5-6.2c0.6-0.9,1-1.8,1.3-2.9l49-63.5c0.8,1.7,1.4,2.9,1.6,3.1
	c0.9,0.8,1.3,1.8,1.3,1.8c-0.3,0.4-0.3,0.7,0.2,1.1c2.4,1.9,2.5,4.2,3.6,6.3c1.1,2.1,2.4,1.2,3.2,2.6c0.2,0.4,1.6,3.6,3.6,8.2
	c-16.1,8.7-27,25.6-27.1,45.2c-0.1,28.5,22.9,51.8,51.4,51.9c28.5,0.1,51.8-22.9,51.9-51.4C275.6,204,252.6,180.7,224,180.6z
	 M265.5,224.4l-19.4-0.1l16.4-9.4C263.9,217.9,264.9,221.1,265.5,224.4z M262.1,213.9L244,224.3l-5.4,0c-0.5-1.3-1.2-2.4-2-3.5
	l0.8-1.4l3.3-4.1l16.3-9.3C259,208.4,260.7,211.1,262.1,213.9z M239,225.3l3.1,0l-2.7,1.5C239.3,226.3,239.2,225.8,239,225.3z
	 M242,234.7l-3.1,0c0.2-0.5,0.3-1,0.4-1.5L242,234.7z M256.4,205.1l-13.7,7.8l9.8-11.9C253.9,202.3,255.2,203.6,256.4,205.1z
	 M230.5,190.3c3.1,0.5,6.1,1.3,9,2.5l-9.1,15.6L230.5,190.3z M230.4,210.6l10.1-17.3c2.6,1.1,5.2,2.5,7.5,4.2l-15.9,19.4
	c-0.5-0.3-1.1-0.6-1.7-0.8L230.4,210.6z M235.8,240.2l1.5,2.7l-2.7-1.6C235,240.9,235.4,240.6,235.8,240.2z M219.9,212.4l1.5,2.7
	c-0.5,0.1-1,0.2-1.5,0.4l0,0L219.9,212.4z M219.8,244.4c0.5,0.2,1,0.3,1.5,0.4l-1.6,2.7L219.8,244.4z M211.7,215.7l-1-0.6
	l-10.4-18.2c0.9-0.6,1.7-1.1,2.6-1.6C206,202.4,209.3,210.3,211.7,215.7z M205.5,139.5c0.8,0.5,1.7,1,1.9,0.9c0.1,0,0.1,0,0.2-0.1
	c0.3,0.8,0.7,1.8,0.8,3.2c-0.1-0.3-0.2-0.6-0.4-0.8c-0.5-0.7-1.3-1.1-2.3-1.1c-0.1,0-0.3,0-0.4,0
	C205.4,140.8,205.5,140.1,205.5,139.5z M205.7,142.1c0.9,0,1.5,0.3,1.9,0.8c0.4,0.6,0.7,1.9,0.2,4.3c-0.6,1.4-1.7,2.8-3.1,4
	c1.1-2,1.6-3.8,1.2-5.3c-0.2-0.8-0.6-1.5-1.2-2.2c0.2-0.6,0.4-1.2,0.5-1.7C205.4,142.1,205.5,142.1,205.7,142.1z M201.8,139.8
	c0.5-0.3,1.6-1.1,2.1-1.1c0.2,0,0.6,0.2,1.1,0.5c0,0.6,0,1.4-0.2,2.4c-0.8,0-1.5,0-2,0.1C202.2,140.8,201.5,139.9,201.8,139.8z
	 M204.6,142.1c-0.1,0.4-0.2,0.8-0.4,1.3c-0.3-0.2-0.6-0.5-0.9-0.7c-0.1-0.2-0.2-0.4-0.3-0.6C203.5,142.2,204,142.2,204.6,142.1z
	 M194.9,144.3c0.1-0.2,2.9,0,3.6,0c0.7,0,1.2-0.8,1.5-0.8c0.3,0,2.7,0.2,3.3-0.1c0.3,0.2,0.5,0.4,0.7,0.6c-0.3,0.9-0.8,2-1.4,3.1
	c-0.4-0.2-1-0.4-1.6-0.5c-2-0.5-3.6-0.8-4.8-1C196,145.3,194.7,144.6,194.9,144.3z M110.8,225.4c-0.4-3.5-1.2-6.9-2.3-10.2
	c2,0.6,4,1,4,1s1.2,3.8,1.4,5.3c0.1,0.9,0.3,2.1,0.5,3.9L110.8,225.4z M113.7,226.7c-0.5,0.6-1.1,1.2-1.5,1.8l-1.2,0
	c0-0.6-0.1-1.2-0.1-1.8L113.7,226.7z M97.3,168.6c0.7-0.4,2.1-1.4,3.4-1.8c0.4,0.9,0.8,1.8,1.1,2.6c-1.3,0.5-2.4,1.4-2.9,1.9
	C98.2,170.2,97.6,169.2,97.3,168.6z M99.8,172.3c-0.2-0.2-0.3-0.4-0.5-0.6c0.4-0.4,1.5-1.3,2.7-1.8c0.1,0.2,0.1,0.4,0.1,0.5
	c0,0,0,0.1,0,0.1C101.1,171,100.2,171.9,99.8,172.3z M100.1,172.8c0.3-0.4,1.2-1.2,2.2-1.6c0.3,1.3,0.6,3.1,0.8,4.1
	C102,174.7,101,173.8,100.1,172.8z M97.8,213.1l-18.1,10.3l-5.4,0c-0.5-1.3-1.2-2.4-2-3.5l0.8-1.4l3.3-4.1l16.3-9.3
	C94.7,207.6,96.4,210.3,97.8,213.1z M81.8,223.4l16.4-9.4c1.3,3,2.3,6.2,3,9.5L81.8,223.4z M101.4,224.6c0,0.2,0.1,0.5,0.1,0.7
	l-22.7-0.1l1.2-0.7L101.4,224.6z M77.8,224.5l-1.2,0.7l-1.7,0c-0.1-0.2-0.1-0.5-0.2-0.7L77.8,224.5z M92.1,204.3l-13.7,7.8l9.8-11.9
	C89.6,201.4,90.9,202.8,92.1,204.3z M66.2,189.5c3.1,0.5,6.1,1.3,9,2.5l-9.1,15.6L66.2,189.5z M66.1,209.7l10.1-17.3
	c2.6,1.1,5.2,2.5,7.5,4.2L67.8,216c-0.5-0.3-1.1-0.6-1.7-0.8L66.1,209.7z M81.6,257.2l-9.3,2c-0.1-1.5,0-4.2-0.6-4.5
	c-0.5-0.3-1.7,0.3-2.4-0.1l-0.4-0.8c0-0.1,0-0.1,0-0.2c0-1.3-0.2-7.8-0.3-11.8c0.3-0.2,0.6-0.4,0.9-0.6l4.6,2.7L81.6,257.2z
	 M75.9,245l16.8,9.8l-10,2.1L75.9,245z M70.3,240.5c0.4-0.4,0.8-0.7,1.1-1.1L73,242L70.3,240.5z M55.6,211.6l1.5,2.7
	c-0.5,0.1-1,0.2-1.6,0.4L55.6,211.6z M55.4,244.4c0.7,0.1,1.4-0.1,1.4-0.1l-1.4,2.3L55.4,244.4z M35,196.7l9.4,16.5l-16.9-9.9
	C29.8,200.9,32.3,198.6,35,196.7z M26.9,204.2l18.7,10.9l2.7,4.7c-0.8,1.1-1.5,2.2-2,3.5l-5.4,0l-19.1-11.2
	C23.1,209.3,24.9,206.6,26.9,204.2z M47.4,216.2l2.7,1.6c-0.4,0.4-0.8,0.7-1.1,1.1L47.4,216.2z M45.7,233.8l-3.1,0l2.7-1.5
	C45.4,232.7,45.6,233.2,45.7,233.8z M42.7,224.3l3.1,0c-0.2,0.5-0.3,1-0.4,1.5L42.7,224.3z M21.2,213l17.4,10.2l-20.8-0.1
	C18.5,219.6,19.7,216.2,21.2,213z M17,231.2c0-2.4,0.2-4.7,0.6-7l22.9,0.1l4.6,2.7c-0.1,0.7-0.1,1.3-0.1,2c0,0.7,0,1.4,0.1,2
	l-4.7,2.7l-23.4-0.1C17,232.8,17,232,17,231.2z M17.2,234.7l21.4,0.1l-19.1,10.9C18.2,242.2,17.4,238.5,17.2,234.7z M19.9,246.7
	l20.9-11.9l5.4,0c0.5,1.3,1.2,2.4,2,3.5l-2.7,4.6l-21.2,12.1C22.5,252.5,21,249.7,19.9,246.7z M47.7,241.7l-0.4,0.2l0.2-0.4
	C47.6,241.6,47.6,241.6,47.7,241.7z M24.8,256l19.5-11.1l-11.5,19.6C29.8,262,27.1,259.2,24.8,256z M54.2,273.5
	c-4-0.5-7.8-1.6-11.4-3.1l11.5-19.8L54.2,273.5z M54.3,248.5L41.8,270c-2.9-1.3-5.6-3-8.1-4.8l12.5-21.4l2.9-1.6
	c0.8,0,1.7-0.4,2.3-0.7c0.1,0.1,0.2,0.1,0.3,0.2c-0.2,0.3-0.3,0.7,0,0.9c0.2,0.1,0.7,0,1.2-0.2c0.5,0.3,1,0.5,1.5,0.7
	c0,0.1,0,0.2,0,0.3L54.3,248.5z M54.5,215.1c-1.3,0.5-2.4,1.2-3.5,2l-4.6-2.7l-10.4-18.2c2.6-1.7,5.4-3.2,8.4-4.3l10.2,17.9
	L54.5,215.1z M54.5,207.5l-9.2-16.1c3-1,6.1-1.8,9.3-2.1L54.5,207.5z M64.7,273.5c-1.8,0.2-3.6,0.3-5.4,0.3c-1.3,0-2.7-0.1-4-0.2
	l0.1-24.8l1.9-3.2c0.5,0.7,1.6,1.4,3.9,1.7c1.5,0.2,2.4,0.4,3,0.5l0.6,1L64.7,273.5z M65,214.7c-0.5-0.2-1-0.3-1.5-0.4l1.6-2.7
	L65,214.7z M65,209.4l-2.7,4.6c-0.7-0.1-1.3-0.1-2-0.1c-0.7,0-1.4,0-2,0.1l-2.7-4.7l0.1-20.2c1.3-0.1,2.6-0.2,4-0.2
	c1.8,0,3.6,0.1,5.4,0.4L65,209.4z M65.8,273.4l0.1-20.4c0.4,3.2,0.8,6.9,0.9,7.6c0.2,1.2,0.1,2.6,1.5,2c0.9-0.4,2.5-1,3.4-1.6
	l5.3,9.2C73.4,271.7,69.7,272.8,65.8,273.4z M77.9,269.6l-5.5-9.6c0,0,0-0.1,0-0.1l9.6-2l3.8,6.7C83.4,266.6,80.8,268.3,77.9,269.6z
	 M86.7,263.9l-3.6-6.3l10.6-2.2l0.5,0.3C92.1,258.8,89.6,261.5,86.7,263.9z M95.2,254.3l-1,0.2l-19.4-11.3l-2.7-4.7
	c0.7-0.8,1.2-1.8,1.7-2.7l11.5,2.7l13.8,8C98.1,249.2,96.8,251.8,95.2,254.3z M99.5,245.4L89,239.2l11.6,2.7
	C100.3,243.1,99.9,244.3,99.5,245.4z M75.4,228.4c0-0.4-0.1-0.8-0.1-1.2l1.1-0.6l25.3,0.1c0.1,0.6,0.1,1.2,0.2,1.8L75.4,228.4z
	 M100.1,183.8c-0.1,0-0.2,0-0.4,0c0.5-1.3,1.5-3,3.7-3.5C102.3,181.8,100.6,183.6,100.1,183.8z M103.6,180l0-0.3
	c-2.7,0.4-3.9,2.5-4.4,4c-0.5-0.1-1.2-0.2-2-0.2c1.1-1.4,3-3.5,5.1-4.2c0.7-0.2,1.4-0.4,1.9-0.5C104.2,179.1,104,179.5,103.6,180z
	 M105.3,167.3l1.2,1.1l-1.3,0.2L105.3,167.3z M106.3,170.8l1.4-0.7c0,0,2.5,2.2,2.4,2.5c-0.1,0.4-1.7,0.3-2.2,0.2
	C107.3,172.8,106.3,170.8,106.3,170.8z M107,251.8c1.4-3.2,2.4-6.5,3.1-9.9l1.1,0c0.8,1.8,2,3.4,3.5,4.6c0,0.2,0,0.3,0,0.4
	c0,1.1,0.1,2.2,0.8,3.1L107,251.8z M125.1,117.3c-0.7-1.2,2.8-4.6,4.1-5.9c1.3-1.3,4-6,4.2-7.3c0.2-1.3,1.8-6.7,2.6-7
	c0.8-0.4,1.9,3.7,3.5,6.4c1.6,2.7,4.1,7.7,5.2,9.3c1.1,1.6,4.2,5.9,6.7,8.5c2.5,2.6,15.8,15.4,17.2,16.9c0,0,0.1,0.1,0.1,0.1
	c-0.9,0.8-0.7,1.5-0.6,2c0,0.2,0.1,0.4,0,0.5c-0.2,0.4-1.1,0.9-1.6,1.1l0.2,0.5c0.2-0.1,1.5-0.7,1.9-1.3c0.1-0.3,0.1-0.6,0-0.9
	c-0.1-0.5-0.2-0.9,0.4-1.5c1.5,1.7,3.8,4.5,4.6,5.3c0.9,0.8,2.1,4.2,3.6,4.6c0.5,0.1,1.4,0.3,2.4,0.5c0.1,0.3,0.3,0.7,0.4,1.1
	l-34.5,12c1.9-1.5,5.3-4.3,6.7-5.9c2-2.2,6.3-9.5,5.2-14.1c-1.2-4.6-3.1-7.9-7.5-10.1c-4.4-2.2-8-6.4-11.3-7.8
	C135.2,123,125.8,118.5,125.1,117.3z M145.1,168.8l-11.5,5c0.1-0.4,0.1-0.7,0.2-1L145.1,168.8z M154.2,191.4
	c0.1-0.9-0.1-1.9-0.4-2.7l2.1-2.6c0,0,0-0.1,0.1-0.1l0.4,0.3l3-3.7c0.9-1.1,0.7-2.6-0.4-3.5l-2-1.6l1.2-1.5c0.4-0.5,0.3-1.1-0.2-1.5
	c-0.5-0.4-1.1-0.3-1.5,0.2l-1.2,1.5l-2-1.6c-1.1-0.9-2.6-0.7-3.5,0.4l-3,3.7l0.4,0.3c0,0-0.1,0.1-0.1,0.1l-12.9,16.1
	c-0.8,1-0.6,2.4,0.4,3.2l5.1,4.1c1,0.8,2.4,0.6,3.2-0.4l0.3-0.3c0.2,0.4,0.4,1,0.2,1.2c-0.3,0.4-1.3,1.3-1.1,1.5
	c0.1,0.1,0.9,0.2,1.6,0.1L133.7,218c-1.5-1.2-3.3-2-5.4-2.1c0.3-1.3,0.8-3.9,0.7-4.9c-0.1-1.4,1.1-5.7,1.4-7
	c0.3-1.4,0.7-9.3,0.8-13.4c0.1-4.1,0.7-8.4,1.4-11.4c0.3-1.1,0.6-2.9,0.9-4.7l18.6-8l17-5.9l9,0L154.2,191.4z M178.5,159.9l-7.6,0
	l10.4-3.6L178.5,159.9z M186.3,137.3c-0.3,0.2-0.9-0.6-0.9-1c0-0.4,1.2-0.6,1.9-0.7c0.6-0.2,0.6-0.9,0.3-1.4c-0.3-0.5-3.9,0.7-4.7,1
	c-0.8,0.3-1.2,1.3-2.7,1.2c-1.5-0.1-3.7-2.2-4-2.9c-0.3-0.7-2.2-0.7-2.7-1.3c-0.5-0.6-9.2-16-11.8-21.8c-2.6-5.7-6.4-9.7-9.4-13.7
	c-3.1-4-3.4-7.2-3-7.2c0.3-0.1,3.4,4.5,5.3,6.9c1.9,2.4,5.8,6.6,7.7,8.6s3.3,4.6,4.7,6.5c1.3,2,10.7,9.1,13.3,11.3
	c2.6,2.2,4.9,4.3,5.4,4.9c0.4,0.6,0.5,1,0.2,1.3c-0.3,0.2,0.2,0.8,0.6,1.1c0.4,0.3,0.3,0.8-0.2,1.1c-0.5,0.3-0.7,1.5-0.4,1.7
	c0.3,0.2,1.6-1,1.9-1c0.2,0,0.8,1,0.9,1.6c0.1,0.7,2,1.8,2,2.2C190.3,136,186.5,137.1,186.3,137.3z M187.9,150.2l0.5,0
	c0,0,1.3,0.6,1.8,0.8c0.5,0.1,1.6-1.3,1.8-1.8c0.2-0.5-0.3-2.4,0-2.6c0.3-0.1,2.3,0.7,2.9,0.4c0.3-0.2,0.8-0.6,1.1-0.9
	c1.3,0.2,2.9,0.5,4.9,1c0.6,0.1,1.1,0.3,1.5,0.5c-0.1,0.1-0.1,0.2-0.2,0.3c-3.2,5.4-10.1,7.3-11.9,7.7L187.9,150.2z M190.5,156
	c2-0.5,8.9-2.4,12.1-7.9c0.1-0.1,0.1-0.2,0.2-0.3c0.5,0.3,0.8,0.6,0.9,0.9c0.1,0.7-0.7,1.7-2.6,3c-2.5,1.8-8.7,4.1-10.4,4.7
	L190.5,156z M191,157c1.8-0.6,7.9-2.9,10.5-4.8c2.2-1.5,3-2.6,2.9-3.6c-0.1-0.5-0.5-0.9-1.1-1.3c0.6-1,1-2,1.3-2.9
	c0.4,0.5,0.7,1.1,0.9,1.7c0.4,1.7-0.3,3.7-2,6.2c-0.7,0.5-1.5,1-2.4,1.5c-4.6,2.5-9.8,3.3-9.8,3.3l0,0.3L191,157z M191.3,157.7
	c0.7-0.1,5.6-1,9.9-3.3c0.2-0.1,0.4-0.2,0.7-0.4c-2.9,2.5-7.9,4.7-9.8,5.5L191.3,157.7z M199.2,167.7l-4.1-1.4l-2.9-6.4
	c2.3-0.9,9.1-3.9,11.5-7.2c1.5-1.1,2.6-2.2,3.5-3.5c-0.3,0.8-0.6,1.8-1,2.8c-1.4,3.5-2.1,9.1-0.1,14.6c1.4,3.7,1.9,8.5,2,11.1
	c-1.3,0.1-3.3,0.7-4.2,1L199.2,167.7z M199.4,197.5l9.4,16.5l-16.9-9.9C194.1,201.7,196.6,199.5,199.4,197.5z M191.2,205l18.7,10.9
	l2.7,4.7c-0.8,1.1-1.5,2.2-2,3.5l-5.4,0L186,212.9C187.5,210.1,189.2,207.5,191.2,205z M213.3,219.7l-1.5-2.7l0.6,0.4
	C212.7,218.3,213.1,219,213.3,219.7C213.3,219.7,213.3,219.7,213.3,219.7z M214.3,241.2l-2.7,1.5l1.6-2.7
	C213.5,240.4,213.9,240.8,214.3,241.2z M210.1,234.6l-3.1,0l2.7-1.5C209.8,233.6,209.9,234.1,210.1,234.6z M207,225.2l3.1,0
	c-0.2,0.5-0.3,1-0.4,1.5L207,225.2z M185.5,213.9l17.4,10.2l-20.8-0.1C182.9,220.4,184,217,185.5,213.9z M181.4,232
	c0-2.4,0.2-4.7,0.6-7l22.9,0.1l4.6,2.7c-0.1,0.7-0.1,1.3-0.1,2c0,0.7,0,1.4,0.1,2l-4.7,2.7l-23.4-0.1
	C181.4,233.6,181.3,232.8,181.4,232z M181.5,235.5l21.4,0.1l-19.1,10.9C182.6,243,181.8,239.3,181.5,235.5z M184.2,247.6l20.9-11.9
	l5.4,0c0.5,1.3,1.2,2.4,2,3.5l-2.7,4.6l-21.2,12.1C186.8,253.3,185.3,250.5,184.2,247.6z M189.2,256.8l19.5-11.1l-11.5,19.6
	C194.1,262.8,191.4,260,189.2,256.8z M218.5,274.4c-4-0.5-7.8-1.6-11.4-3.1l11.5-19.8L218.5,274.4z M218.6,249.3l-12.6,21.5
	c-2.9-1.3-5.6-3-8.1-4.8l12.5-21.4l4.7-2.7c1.1,0.8,2.2,1.5,3.5,2L218.6,249.3z M218.8,213l-4.4-10.3l4.5,7.8L218.8,213z
	 M218.8,208.3l-8.4-14.7l-0.6-1.5c2.9-1,6-1.7,9.1-2.1L218.8,208.3z M229,274.4c-1.8,0.2-3.6,0.3-5.4,0.3c-1.3,0-2.7-0.1-4-0.2
	l0.1-24.8l2.7-4.6c0.7,0.1,1.3,0.1,2,0.1c0.7,0,1.4,0,2-0.1l2.7,4.7L229,274.4z M229.1,247.5l-1.5-2.7c0.5-0.1,1-0.2,1.6-0.4
	L229.1,247.5z M229.3,215.5c-0.5-0.2-1-0.3-1.5-0.4l1.6-2.7L229.3,215.5z M229.3,210.3l-2.7,4.6c-0.7-0.1-1.3-0.1-2-0.1
	c-0.7,0-1.3,0-2,0.1l-2.7-4.7L220,190c1.3-0.1,2.6-0.2,4-0.2c1.8,0,3.6,0.1,5.4,0.4L229.3,210.3z M230.1,274.2l0.1-22.7l11.1,19.4
	C237.8,272.5,234,273.6,230.1,274.2z M242.2,270.5l-12-21.1l0-5.4c1.3-0.5,2.4-1.2,3.5-2l4.6,2.7l11.8,20.7
	C247.8,267.4,245.1,269.1,242.2,270.5z M251.1,264.8l-10.8-18.9l18.3,10.7C256.4,259.6,253.9,262.4,251.1,264.8z M259.2,255.6
	l-20-11.7l-2.7-4.7c0.8-1.1,1.5-2.2,2-3.5l5.4,0l19.6,11.4C262.4,250.2,260.9,253,259.2,255.6z M263.9,246.2l-17.8-10.4l20,0.1
	C265.8,239.5,265,243,263.9,246.2z M244.2,234.7l-4.6-2.7c0.1-0.7,0.1-1.3,0.1-2c0-0.7,0-1.3-0.1-2l4.7-2.7l21.4,0.1
	c0.4,2.3,0.6,4.6,0.5,7c0,0.8,0,1.6-0.1,2.4L244.2,234.7z"/>
</g>
</svg>
